<svg width="228" height="56" viewBox="0 0 228 56" fill="none" xmlns="http://www.w3.org/2000/svg">

  <path fill-rule="evenodd" clip-rule="evenodd" d="M11.296 0.0730038C5.94844 0.542207 1.52466 4.44062 0.249522 9.80757C0.0636159 10.5901 0.0476011 11.7964 0.0146756 27.4701C-0.0238496 45.7966 -0.0329209 45.4893 0.603304 47.4044C2.04251 51.7363 5.60922 54.8773 10.1345 55.7979C11.0662 55.9875 12.176 56 27.9828 56C43.7506 56 44.9012 55.987 45.8244 55.7991C49.2558 55.1007 52.1321 53.1604 53.9864 50.2933C54.74 49.128 55.212 48.0508 55.6282 46.5458L55.9247 45.4737V28.0046V10.5354L55.6282 9.46334C55.212 7.95841 54.74 6.88115 53.9864 5.71587C52.1474 2.87232 49.3801 0.989462 45.8982 0.212645C45.141 0.0437768 43.5098 0.023844 28.7108 0.00279141C19.7178 -0.00986252 11.8812 0.0217162 11.296 0.0730038ZM13.0084 13.5871C13.5062 13.0297 13.9093 12.6829 14.1356 12.6174C14.558 12.495 17.8893 12.4661 19.7919 12.5685L21.1552 12.6417L24.2689 16.3479C25.9814 18.3861 28.4418 21.3473 29.7363 22.928L32.0899 25.802L32.1641 29.8611C32.3093 37.7834 32.2461 43.514 32.0138 43.514C31.896 43.514 30.0241 41.3502 26.5679 37.2192L23.5031 33.5559V27.1689V20.7818H17.2495C11.1084 20.7818 7.26323 20.6996 7.26547 20.5682C7.26793 20.4232 11.5278 15.2449 13.0084 13.5871ZM31.4774 16.6149C33.9622 13.617 34.5901 12.9385 35.0943 12.7063C35.4963 12.5212 35.8753 12.4998 38.7911 12.4976L42.0401 12.4951L44.3347 15.205C46.9053 18.2406 48.7013 20.4449 48.7013 20.5645C48.7013 20.7842 28.5782 20.8546 28.3592 20.6355C28.2776 20.5539 29.2228 19.3352 31.4774 16.6149Z" fill="#7232F2"/>
  <path d="M35.0943 12.7063C34.5901 12.9385 33.9622 13.617 31.4774 16.6149C29.2228 19.3352 28.2776 20.5539 28.3592 20.6355C28.5782 20.8546 48.7013 20.7842 48.7013 20.5645C48.7013 20.4449 46.9053 18.2406 44.3347 15.205L42.0401 12.4951L38.7911 12.4976C35.8753 12.4998 35.4963 12.5212 35.0943 12.7063Z" fill="white"/>
  <path d="M14.1356 12.6174C13.9093 12.6829 13.5062 13.0297 13.0084 13.5871C11.5278 15.2449 7.26793 20.4232 7.26547 20.5682C7.26323 20.6996 11.1084 20.7818 17.2495 20.7818H23.5031V27.1689V33.5559L26.5679 37.2192C30.0241 41.3502 31.896 43.514 32.0138 43.514C32.2461 43.514 32.3093 37.7834 32.1641 29.8611L32.0899 25.802L29.7363 22.928C28.4418 21.3473 25.9814 18.3861 24.2689 16.3479L21.1552 12.6417L19.7919 12.5685C17.8893 12.4661 14.558 12.495 14.1356 12.6174Z" fill="white"/>
  <path d="M75.7631 12.9538L70.3157 18.3397V19.9527V21.5656H73.2835H76.2512V25.9134C76.2512 30.7557 76.347 32.115 76.8204 33.9921C77.2003 35.4987 78.0777 37.3789 78.9123 38.4749C79.6075 39.3877 80.9167 40.6331 81.7951 41.2172C84.3407 42.91 87.7465 43.8716 91.5941 43.9837L92.77 44.018L92.7995 40.2556L92.8289 36.4932L91.7331 36.4265C87.9305 36.1948 85.6856 34.8131 84.7909 32.1537L84.4877 31.2521L84.4506 26.4088L84.4136 21.5656H88.6213H92.829L92.7995 17.8423L92.77 14.1189L88.5983 14.0895L84.4266 14.0602V10.8141V7.56793H82.8186H81.2106L75.7631 12.9538Z" fill="#171717"/>
  <path d="M99.8202 33.4847C101.814 40.0199 107.081 43.9884 113.768 43.993C117.953 43.9958 121.422 42.3391 124.189 39.0172L124.717 38.3837L125.023 40.361C125.191 41.4484 125.364 42.5146 125.405 42.7302L125.482 43.1221L129.144 43.1517L132.807 43.1811V28.6206V14.0601L128.747 14.0895L124.688 14.1189L124.628 21.7896C124.576 28.4808 124.545 29.5396 124.383 30.0814C123.856 31.8533 123.233 32.9417 122.112 34.0516C120.375 35.7714 118.08 36.5778 115.358 36.4247C111.428 36.2038 108.534 33.948 107.429 30.2442C107.248 29.6365 107.222 28.8343 107.167 21.8456L107.105 14.1189L103.039 14.0894L98.9722 14.0601L99.018 22.1521L99.0185 22.2407V22.2413C99.0569 29.0077 99.0657 30.5588 99.4087 32.032C99.5043 32.4426 99.6259 32.8473 99.7813 33.3572L99.8128 33.4604L99.8129 33.4606L99.813 33.4611L99.8202 33.4847Z" fill="#171717"/>
  <path d="M143.698 12.9695L138.295 18.3751V19.9704V21.5656H141.253H144.211L144.26 26.8008C144.315 32.584 144.353 32.9489 145.137 35.1937C146.981 40.4758 151.683 43.4703 158.901 43.9604C159.794 44.021 160.563 44.0714 160.609 44.0723C160.655 44.0732 160.693 42.368 160.693 40.283V36.4922L159.518 36.4162C155.665 36.1672 153.369 34.5921 152.627 31.6892C152.424 30.8964 152.406 30.4385 152.406 26.195V21.5656H156.549H160.693V17.8143V14.0629H156.551H152.409L152.379 10.8434L152.35 7.62393L150.726 7.59391L149.102 7.5639L143.698 12.9695Z" fill="#171717"/>
  <path fill-rule="evenodd" clip-rule="evenodd" d="M179.844 13.4011C175.588 13.9483 171.998 15.6313 169.248 18.3679C166.335 21.2679 164.949 24.5908 164.949 28.6765C164.949 31.8393 165.81 34.5461 167.618 37.0617C171.521 42.4917 179.323 45.1115 187.123 43.6105C193.203 42.4405 197.904 38.7363 199.655 33.7367C200.763 30.5741 200.782 26.6731 199.705 23.6596C197.719 18.101 192.718 14.404 185.899 13.453C184.553 13.2653 181.127 13.2359 179.844 13.4011ZM174.734 24.0082C175.918 22.5544 178.088 21.3652 180.33 20.9413C180.872 20.8389 181.749 20.8024 183.035 20.8289C185.334 20.8762 186.309 21.0873 187.963 21.8956C190.611 23.1899 192.134 25.351 192.346 28.115C192.581 31.1736 190.972 33.8757 188.075 35.2863C183.477 37.5254 177.137 36.4393 174.525 32.9651C173.488 31.5859 173.079 30.3672 173.086 28.6765C173.093 26.8863 173.631 25.3624 174.734 24.0082Z" fill="#171717"/>
  <path d="M225.312 13.4437C223.326 13.7792 221.423 14.495 219.752 15.5353C217.956 16.6537 215.776 18.9587 214.708 20.8677C214.481 21.2742 214.281 21.5597 214.265 21.5023C214.249 21.4447 214.056 19.8103 213.835 17.8702C213.615 15.9302 213.413 14.2799 213.386 14.2028C213.347 14.0948 212.518 14.0629 209.749 14.0629H206.162V28.6205V43.1781H210.193H214.225V39.051C214.225 36.7811 214.277 34.2884 214.34 33.5116C214.83 27.4731 218.236 23.4913 223.968 22.2558C224.553 22.1297 225.435 21.9964 225.928 21.9597C226.421 21.923 227.089 21.8661 227.412 21.8332L228 21.7735V17.5262V13.279L227.076 13.2905C226.568 13.2968 225.774 13.3658 225.312 13.4437Z" fill="#171717"/>

</svg>
